<svg width="2048" height="3072" viewBox="0 0 2048 3072" fill="none" xmlns="http://www.w3.org/2000/svg">
<path d="M984.841 2900.54C982.788 2898.22 981.215 2895.6 980.121 2892.7C979.028 2889.76 978.481 2886.75 978.481 2883.66C978.481 2880.56 979.028 2877.56 980.121 2874.66C981.215 2871.75 982.788 2869.14 984.841 2866.82H986.681C985.721 2868.34 984.841 2870.02 984.041 2871.86C983.268 2873.7 982.641 2875.62 982.161 2877.62C981.708 2879.59 981.481 2881.6 981.481 2883.66C981.481 2885.68 981.708 2887.71 982.161 2889.74C982.641 2891.74 983.268 2893.66 984.041 2895.5C984.841 2897.34 985.721 2899.02 986.681 2900.54H984.841ZM1002.67 2894.66C1000.96 2894.66 999.426 2894.27 998.066 2893.5C996.706 2892.72 995.626 2891.66 994.826 2890.3C994.052 2888.91 993.666 2887.32 993.666 2885.54V2875.5C993.666 2873.71 994.066 2872.14 994.866 2870.78C995.666 2869.39 996.746 2868.32 998.106 2867.58C999.492 2866.8 1001.03 2866.42 1002.71 2866.42H1003.31C1005.01 2866.42 1006.53 2866.8 1007.87 2867.58C1009.23 2868.32 1010.29 2869.39 1011.07 2870.78C1011.87 2872.14 1012.27 2873.71 1012.27 2875.5V2885.54C1012.27 2887.32 1011.87 2888.91 1011.07 2890.3C1010.27 2891.66 1009.19 2892.72 1007.83 2893.5C1006.49 2894.27 1004.96 2894.66 1003.23 2894.66H1002.67ZM1002.95 2891.86C1004.07 2891.86 1005.07 2891.6 1005.95 2891.1C1006.85 2890.59 1007.56 2889.9 1008.07 2889.02C1008.57 2888.11 1008.83 2887.1 1008.83 2885.98V2875.1C1008.83 2873.95 1008.57 2872.94 1008.07 2872.06C1007.56 2871.18 1006.85 2870.48 1005.95 2869.98C1005.07 2869.44 1004.07 2869.18 1002.95 2869.18C1001.83 2869.18 1000.83 2869.44 999.946 2869.98C999.066 2870.48 998.372 2871.18 997.866 2872.06C997.359 2872.94 997.106 2873.95 997.106 2875.1V2885.98C997.106 2887.1 997.359 2888.11 997.866 2889.02C998.372 2889.9 999.066 2890.59 999.946 2891.1C1000.83 2891.6 1001.83 2891.86 1002.95 2891.86ZM1023.85 2894.66C1022.14 2894.66 1020.61 2894.27 1019.25 2893.5C1017.89 2892.72 1016.81 2891.66 1016.01 2890.3C1015.24 2888.91 1014.85 2887.32 1014.85 2885.54V2875.5C1014.85 2873.71 1015.25 2872.14 1016.05 2870.78C1016.85 2869.39 1017.93 2868.32 1019.29 2867.58C1020.68 2866.8 1022.21 2866.42 1023.89 2866.42H1024.49C1026.2 2866.42 1027.72 2866.8 1029.05 2867.58C1030.41 2868.32 1031.48 2869.39 1032.25 2870.78C1033.05 2872.14 1033.45 2873.71 1033.45 2875.5V2885.54C1033.45 2887.32 1033.05 2888.91 1032.25 2890.3C1031.45 2891.66 1030.37 2892.72 1029.01 2893.5C1027.68 2894.27 1026.14 2894.66 1024.41 2894.66H1023.85ZM1024.13 2891.86C1025.25 2891.86 1026.25 2891.6 1027.13 2891.1C1028.04 2890.59 1028.74 2889.9 1029.25 2889.02C1029.76 2888.11 1030.01 2887.1 1030.01 2885.98V2875.1C1030.01 2873.95 1029.76 2872.94 1029.25 2872.06C1028.74 2871.18 1028.04 2870.48 1027.13 2869.98C1026.25 2869.44 1025.25 2869.18 1024.13 2869.18C1023.01 2869.18 1022.01 2869.44 1021.13 2869.98C1020.25 2870.48 1019.56 2871.18 1019.05 2872.06C1018.54 2872.94 1018.29 2873.95 1018.29 2875.1V2885.98C1018.29 2887.1 1018.54 2888.11 1019.05 2889.02C1019.56 2889.9 1020.25 2890.59 1021.13 2891.1C1022.01 2891.6 1023.01 2891.86 1024.13 2891.86ZM1044.71 2894.66C1042.87 2894.66 1041.25 2894.34 1039.83 2893.7C1038.42 2893.03 1037.31 2892.11 1036.51 2890.94C1035.74 2889.76 1035.35 2888.42 1035.35 2886.9V2886.22H1038.55C1038.55 2888.19 1039.11 2889.63 1040.23 2890.54C1041.38 2891.44 1042.93 2891.9 1044.87 2891.9C1046.71 2891.9 1048.22 2891.46 1049.39 2890.58C1050.59 2889.7 1051.19 2888.4 1051.19 2886.7C1051.19 2885.5 1050.91 2884.52 1050.35 2883.78C1049.82 2883 1049.09 2882.43 1048.15 2882.06C1047.22 2881.68 1046.19 2881.5 1045.07 2881.5H1041.75V2878.94H1044.79C1045.83 2878.94 1046.79 2878.76 1047.67 2878.42C1048.55 2878.04 1049.26 2877.5 1049.79 2876.78C1050.33 2876.06 1050.59 2875.15 1050.59 2874.06C1050.59 2872.96 1050.34 2872.06 1049.83 2871.34C1049.33 2870.62 1048.63 2870.08 1047.75 2869.74C1046.9 2869.39 1045.94 2869.22 1044.87 2869.22C1043.06 2869.22 1041.65 2869.67 1040.63 2870.58C1039.62 2871.48 1039.11 2872.79 1039.11 2874.5H1035.99V2873.82C1035.99 2872.3 1036.38 2870.99 1037.15 2869.9C1037.95 2868.78 1039.02 2867.92 1040.35 2867.34C1041.69 2866.72 1043.18 2866.42 1044.83 2866.42H1045.23C1046.86 2866.42 1048.34 2866.71 1049.67 2867.3C1051.01 2867.88 1052.06 2868.74 1052.83 2869.86C1053.61 2870.95 1053.99 2872.27 1053.99 2873.82C1053.99 2874.91 1053.81 2875.84 1053.43 2876.62C1053.06 2877.39 1052.54 2878.04 1051.87 2878.58C1051.23 2879.11 1050.49 2879.58 1049.63 2879.98V2880.18C1051.07 2880.6 1052.26 2881.38 1053.19 2882.5C1054.15 2883.59 1054.63 2885.06 1054.63 2886.9C1054.63 2888.47 1054.22 2889.84 1053.39 2891.02C1052.57 2892.16 1051.45 2893.06 1050.03 2893.7C1048.62 2894.34 1047.02 2894.66 1045.23 2894.66H1044.71ZM1063.46 2866.82C1065.51 2869.14 1067.09 2871.75 1068.18 2874.66C1069.27 2877.56 1069.82 2880.58 1069.82 2883.7C1069.82 2886.76 1069.27 2889.76 1068.18 2892.7C1067.09 2895.6 1065.51 2898.22 1063.46 2900.54H1061.58C1062.57 2898.99 1063.45 2897.3 1064.22 2895.46C1065.02 2893.64 1065.65 2891.74 1066.1 2889.74C1066.58 2887.71 1066.82 2885.7 1066.82 2883.7C1066.82 2881.64 1066.58 2879.62 1066.1 2877.62C1065.65 2875.62 1065.02 2873.7 1064.22 2871.86C1063.45 2870.02 1062.57 2868.34 1061.58 2866.82H1063.46Z" fill="black"/>
<path d="M962.329 167.5V140.06H973.329C974.796 140.06 976.062 140.34 977.129 140.9C978.222 141.46 979.062 142.233 979.649 143.22C980.236 144.207 980.529 145.34 980.529 146.62C980.529 147.98 980.276 149.113 979.769 150.02C979.289 150.9 978.676 151.593 977.929 152.1C977.182 152.58 976.436 152.927 975.689 153.14V153.38C976.142 153.433 976.676 153.58 977.289 153.82C977.902 154.06 978.502 154.433 979.089 154.94C979.676 155.447 980.169 156.127 980.569 156.98C980.969 157.833 981.169 158.9 981.169 160.18C981.169 161.54 980.836 162.78 980.169 163.9C979.502 164.993 978.596 165.873 977.449 166.54C976.302 167.18 975.009 167.5 973.569 167.5H962.329ZM965.689 164.58H972.809C973.742 164.58 974.569 164.367 975.289 163.94C976.036 163.513 976.622 162.94 977.049 162.22C977.476 161.473 977.689 160.647 977.689 159.74C977.689 158.807 977.462 157.98 977.009 157.26C976.582 156.513 975.996 155.94 975.249 155.54C974.529 155.113 973.716 154.9 972.809 154.9H965.689V164.58ZM965.689 152.1H972.409C973.289 152.1 974.076 151.887 974.769 151.46C975.462 151.033 976.009 150.46 976.409 149.74C976.836 148.993 977.049 148.18 977.049 147.3C977.049 145.94 976.702 144.86 976.009 144.06C975.316 143.26 974.289 142.86 972.929 142.86H965.689V152.1ZM990.593 167.5V157.14L981.193 140.06H985.113L992.473 153.46H992.593L999.953 140.06H1003.51L994.153 157.14V167.5H990.593ZM1027.08 167.5V140.06H1030.64V164.5H1043.44L1044 167.5H1027.08ZM1047.55 167.5V140.06H1065.15L1064.67 142.94H1051.07V152.06H1063.31V154.9H1051.07V164.54H1064.95L1065.47 167.5H1047.55ZM1054.79 137.26L1058.87 131.86H1062.43V131.98L1057.71 137.26H1054.79ZM1065.73 167.5L1075.01 140.06H1079.17L1088.49 167.5H1084.85L1077.05 143.78H1076.89L1069.21 167.5H1065.73ZM1069.97 161.1V158.3H1084.09V161.1H1069.97Z" fill="black"/>
</svg>
